<?xml version="1.0" encoding="UTF-8" standalone="no"?>
<svg width="154px" height="130px" viewBox="0 0 154 130" version="1.1" xmlns="http://www.w3.org/2000/svg" xmlns:xlink="http://www.w3.org/1999/xlink" xmlns:sketch="http://www.bohemiancoding.com/sketch/ns">
    <!-- Generator: Sketch 3.3.3 (12072) - http://www.bohemiancoding.com/sketch -->
    <title>Untitled</title>
    <desc>Created with Sketch.</desc>
    <defs></defs>
    <g id="Page-1" stroke="none" stroke-width="1" fill="none" fill-rule="evenodd" sketch:type="MSPage">
        <g id="logo-+-type" sketch:type="MSLayerGroup">
            <g id="type" transform="translate(0.000000, 105.000000)" fill-opacity="0.9" fill="#58646F" sketch:type="MSShapeGroup">
                <path d="M7.5,16.5507812 C8.07031535,16.5507812 8.60546625,16.4414073 9.10546875,16.2226562 C9.60547125,16.0039052 10.0410138,15.7070331 10.4121094,15.3320312 C10.783205,14.9570294 11.0761708,14.5214869 11.2910156,14.0253906 C11.5058604,13.5292944 11.6132812,13.0000028 11.6132812,12.4375 C11.6132812,11.8749972 11.5058604,11.3457056 11.2910156,10.8496094 C11.0761708,10.3535131 10.783205,9.91797063 10.4121094,9.54296875 C10.0410138,9.16796687 9.60547125,8.87109484 9.10546875,8.65234375 C8.60546625,8.43359266 8.07031535,8.32421875 7.5,8.32421875 C6.92187211,8.32421875 6.382815,8.43359266 5.8828125,8.65234375 C5.38281,8.87109484 4.94922059,9.16601377 4.58203125,9.53710938 C4.21484191,9.90820498 3.9238292,10.3437475 3.70898438,10.84375 C3.49413955,11.3437525 3.38671875,11.8749972 3.38671875,12.4375 C3.38671875,13.0000028 3.49413955,13.5312475 3.70898438,14.03125 C3.9238292,14.5312525 4.21484191,14.966795 4.58203125,15.3378906 C4.94922059,15.7089862 5.38281,16.0039052 5.8828125,16.2226562 C6.382815,16.4414073 6.92187211,16.5507812 7.5,16.5507812 L7.5,16.5507812 Z M3.38671875,7.328125 C4.55078707,6.35937016 5.92186711,5.875 7.5,5.875 C9.29688398,5.875 10.8437435,6.51561859 12.140625,7.796875 C12.7812532,8.42969066 13.2617171,9.13476174 13.5820312,9.91210937 C13.9023454,10.689457 14.0625,11.5312455 14.0625,12.4375 C14.0625,14.2656341 13.4218814,15.8124937 12.140625,17.078125 C10.8437435,18.3593814 9.29688398,19 7.5,19 C5.68749094,19 4.14063141,18.3593814 2.859375,17.078125 C1.57811859,15.7968686 0.9375,14.2500091 0.9375,12.4375 L0.9375,1.46875 C0.9375,1.11718574 1.05273322,0.826173027 1.28320312,0.595703125 C1.51367303,0.365233223 1.80468574,0.25 2.15625,0.25 C2.50000172,0.25 2.79101443,0.365233223 3.02929688,0.595703125 C3.26757932,0.826173027 3.38671875,1.11718574 3.38671875,1.46875 L3.38671875,7.328125 Z M26.4492188,11.21875 C26.3164056,10.7890604 26.1191419,10.3964862 25.8574219,10.0410156 C25.5957018,9.6855451 25.2910174,9.38086064 24.9433594,9.12695312 C24.5957014,8.87304561 24.2128927,8.67578195 23.7949219,8.53515625 C23.376951,8.39453055 22.9453147,8.32421875 22.5,8.32421875 C22.0546853,8.32421875 21.6210959,8.39453055 21.1992188,8.53515625 C20.7773416,8.67578195 20.3906268,8.87304561 20.0390625,9.12695312 C19.6874982,9.38086064 19.3828138,9.6855451 19.125,10.0410156 C18.8671862,10.3964862 18.6757819,10.7890604 18.5507812,11.21875 L26.4492188,11.21875 Z M25.921875,15.3085938 C26.2734393,15.3085938 26.564452,15.423827 26.7949219,15.6542969 C27.0253918,15.8847668 27.140625,16.1757795 27.140625,16.5273438 C27.140625,16.8710955 27.0234387,17.1640613 26.7890625,17.40625 C25.5781189,18.4687553 24.1484457,19 22.5,19 C20.6874909,19 19.1406314,18.3593814 17.859375,17.078125 C16.5781186,15.7968686 15.9375,14.2500091 15.9375,12.4375 C15.9375,10.6249909 16.5781186,9.07813141 17.859375,7.796875 C19.1406314,6.51561859 20.6874909,5.875 22.5,5.875 C24.296884,5.875 25.8437435,6.51561859 27.140625,7.796875 C27.7812532,8.42969066 28.2617171,9.13476174 28.5820312,9.91210938 C28.9023454,10.689457 29.0625,11.5312455 29.0625,12.4375 C29.0625,12.7890643 28.9433606,13.080077 28.7050781,13.3105469 C28.4667957,13.5410168 28.175783,13.65625 27.8320312,13.65625 L18.5507812,13.65625 C18.6835944,14.0859396 18.878905,14.4785138 19.1367188,14.8339844 C19.3945325,15.1894549 19.6972639,15.4941394 20.0449219,15.7480469 C20.3925799,16.0019544 20.7753885,16.199218 21.1933594,16.3398438 C21.6113302,16.4804695 22.0468727,16.5507812 22.5,16.5507812 C23.0156276,16.5507812 23.4882791,16.472657 23.9179688,16.3164062 C24.3476584,16.1601555 24.7460919,15.9257828 25.1132812,15.6132812 C25.3476574,15.4179678 25.617186,15.3164063 25.921875,15.3085938 L25.921875,15.3085938 Z M33.328125,12.7539062 C32.5937463,12.4726548 32.0781265,12.1835952 31.78125,11.8867188 L31.7929688,11.8867188 C31.1992158,11.2851532 30.9023438,10.5781291 30.9023438,9.765625 C30.9023438,9.17187203 31.0605453,8.63476803 31.3769531,8.15429688 C31.693361,7.67382572 32.1054662,7.26562668 32.6132812,6.9296875 C33.1210963,6.59374832 33.6933562,6.33398529 34.3300781,6.15039062 C34.9668001,5.96679596 35.6054655,5.875 36.2460938,5.875 C38.1992285,5.875 39.874993,6.6601484 41.2734375,8.23046875 C41.4375008,8.43359477 41.5195312,8.67968605 41.5195312,8.96875 C41.5195312,9.32031426 41.404298,9.61132697 41.1738281,9.84179688 C40.9433582,10.0722668 40.6523455,10.1875 40.3007812,10.1875 C40.05078,10.1875 39.8378915,10.1171882 39.6621094,9.9765625 C39.4863272,9.8359368 39.3164071,9.68359457 39.1523438,9.51953125 C38.3554648,8.72265227 37.3867245,8.32421875 36.2460938,8.32421875 C35.1210881,8.32421875 34.2226596,8.66796531 33.5507812,9.35546875 C33.4257806,9.48046937 33.3632812,9.65234266 33.3632812,9.87109375 C33.3632812,10.0898448 33.4648427,10.2382809 33.6679688,10.3164062 L39.1523438,12.1210938 C39.9179726,12.4179702 40.4335924,12.7070298 40.6992188,12.9882812 L40.6875,12.9882812 C41.281253,13.5898468 41.578125,14.2968709 41.578125,15.109375 C41.578125,15.7109405 41.4199235,16.2499976 41.1035156,16.7265625 C40.7871078,17.2031274 40.3750025,17.6113264 39.8671875,17.9511719 C39.3593725,18.2910173 38.7890657,18.5507804 38.15625,18.7304688 C37.5234343,18.9101571 36.886722,19 36.2460938,19 C34.2773339,19 32.6015694,18.222664 31.21875,16.6679688 C31.0468741,16.4414051 30.9609375,16.1875014 30.9609375,15.90625 C30.9609375,15.5546857 31.0761707,15.263673 31.3066406,15.0332031 C31.5371105,14.8027332 31.8281232,14.6875 32.1796875,14.6875 C32.4375013,14.6875 32.6562491,14.7636711 32.8359375,14.9160156 C33.0156259,15.0683601 33.1796868,15.214843 33.328125,15.3554688 C34.125004,16.1523477 35.0976505,16.5507812 36.2460938,16.5507812 C37.3632868,16.5507812 38.2617154,16.1992223 38.9414062,15.4960938 C39.0585943,15.3632806 39.1171875,15.2031259 39.1171875,15.015625 C39.1171875,14.7968739 39.0117198,14.6445317 38.8007812,14.5585938 L33.328125,12.7539062 Z M49.921875,8.32421875 C49.3437471,8.32421875 48.80469,8.43359266 48.3046875,8.65234375 C47.804685,8.87109484 47.3710956,9.16601377 47.0039062,9.53710938 C46.6367169,9.90820498 46.3457042,10.3437475 46.1308594,10.84375 C45.9160146,11.3437525 45.8085938,11.8749972 45.8085938,12.4375 C45.8085938,13.0000028 45.9160146,13.5312475 46.1308594,14.03125 C46.3457042,14.5312525 46.6367169,14.966795 47.0039062,15.3378906 C47.3710956,15.7089862 47.804685,16.0039052 48.3046875,16.2226562 C48.80469,16.4414073 49.3437471,16.5507812 49.921875,16.5507812 C50.4921904,16.5507812 51.0273413,16.4414073 51.5273438,16.2226562 C52.0273462,16.0039052 52.4628888,15.7070331 52.8339844,15.3320312 C53.20508,14.9570294 53.4980458,14.5214869 53.7128906,14.0253906 C53.9277354,13.5292944 54.0351562,13.0000028 54.0351562,12.4375 C54.0351562,11.8749972 53.9277354,11.3457056 53.7128906,10.8496094 C53.4980458,10.3535131 53.20508,9.91797063 52.8339844,9.54296875 C52.4628888,9.16796687 52.0273462,8.87109484 51.5273438,8.65234375 C51.0273413,8.43359266 50.4921904,8.32421875 49.921875,8.32421875 L49.921875,8.32421875 Z M54.0351562,17.78125 L54.0351562,17.546875 C53.4492158,18.0156273 52.8125034,18.3749988 52.125,18.625 C51.4374966,18.8750012 50.7031289,19 49.921875,19 C48.1093659,19 46.5625064,18.3593814 45.28125,17.078125 C43.9999936,15.7968686 43.359375,14.2500091 43.359375,12.4375 C43.359375,10.6249909 43.9999936,9.07813141 45.28125,7.796875 C46.5625064,6.51561859 48.1093659,5.875 49.921875,5.875 C51.718759,5.875 53.2656185,6.51561859 54.5625,7.796875 C55.8437564,9.07813141 56.484375,10.6249909 56.484375,12.4375 L56.484375,17.78125 C56.484375,18.1171892 56.3652356,18.4042957 56.1269531,18.6425781 C55.8886707,18.8808606 55.6015642,19 55.265625,19 C54.9218733,19 54.6308606,18.8808606 54.3925781,18.6425781 C54.1542957,18.4042957 54.0351562,18.1171892 54.0351562,17.78125 L54.0351562,17.78125 Z M60.796875,7.08203125 C61.8359427,6.27733973 63.0585867,5.875 64.4648438,5.875 C65.2851604,5.875 66.0644494,6.03515465 66.8027344,6.35546875 C67.5410193,6.67578285 68.1914034,7.11132537 68.7539062,7.66210938 C69.3164091,8.21289338 69.7617171,8.86132439 70.0898438,9.60742188 C70.4179704,10.3535194 70.5820312,11.1484333 70.5820312,11.9921875 L70.5820312,17.7695312 C70.5820312,18.113283 70.4628918,18.4042957 70.2246094,18.6425781 C69.9863269,18.8808606 69.6992204,19 69.3632812,19 C69.0195295,19 68.7285168,18.8808606 68.4902344,18.6425781 C68.2519519,18.4042957 68.1328125,18.113283 68.1328125,17.7695312 L68.1328125,11.9921875 C68.1328125,11.492185 68.0351572,11.0195335 67.8398438,10.5742188 C67.6445303,10.128904 67.380861,9.74023604 67.0488281,9.40820312 C66.7167952,9.07617021 66.3281272,8.81250098 65.8828125,8.6171875 C65.4374978,8.42187402 64.9648462,8.32421875 64.4648438,8.32421875 C63.9570287,8.32421875 63.4824241,8.41992092 63.0410156,8.61132812 C62.5996072,8.80273533 62.2109392,9.06640457 61.875,9.40234375 C61.5390608,9.73828293 61.2753916,10.128904 61.0839844,10.5742188 C60.8925772,11.0195335 60.796875,11.492185 60.796875,11.9921875 L60.796875,17.7695312 C60.796875,18.113283 60.6777356,18.4042957 60.4394531,18.6425781 C60.2011707,18.8808606 59.9140642,19 59.578125,19 C59.2343733,19 58.9433606,18.8808606 58.7050781,18.6425781 C58.4667957,18.4042957 58.3476562,18.113283 58.3476562,17.7695312 L58.3476562,7.10546875 C58.3476562,6.76952957 58.4667957,6.48046996 58.7050781,6.23828125 C58.9433606,5.99609254 59.2343733,5.875 59.578125,5.875 C59.9140642,5.875 60.2011707,5.99609254 60.4394531,6.23828125 C60.6777356,6.48046996 60.796875,6.76171715 60.796875,7.08203125 L60.796875,7.08203125 Z M78.984375,8.32421875 C78.4062471,8.32421875 77.86719,8.43359266 77.3671875,8.65234375 C76.867185,8.87109484 76.4335956,9.16601377 76.0664062,9.53710938 C75.6992169,9.90820498 75.4082042,10.3437475 75.1933594,10.84375 C74.9785146,11.3437525 74.8710938,11.8749972 74.8710938,12.4375 C74.8710938,13.0000028 74.9785146,13.5312475 75.1933594,14.03125 C75.4082042,14.5312525 75.6992169,14.966795 76.0664062,15.3378906 C76.4335956,15.7089862 76.867185,16.0039052 77.3671875,16.2226562 C77.86719,16.4414073 78.4062471,16.5507812 78.984375,16.5507812 C79.5546904,16.5507812 80.0898413,16.4414073 80.5898438,16.2226562 C81.0898462,16.0039052 81.5253888,15.7070331 81.8964844,15.3320312 C82.26758,14.9570294 82.5605458,14.5214869 82.7753906,14.0253906 C82.9902354,13.5292944 83.0976562,13.0000028 83.0976562,12.4375 C83.0976562,11.8749972 82.9902354,11.3457056 82.7753906,10.8496094 C82.5605458,10.3535131 82.26758,9.91797063 81.8964844,9.54296875 C81.5253888,9.16796687 81.0898462,8.87109484 80.5898438,8.65234375 C80.0898413,8.43359266 79.5546904,8.32421875 78.984375,8.32421875 L78.984375,8.32421875 Z M83.0976562,17.78125 L83.0976562,17.546875 C82.5117158,18.0156273 81.8750034,18.3749988 81.1875,18.625 C80.4999966,18.8750012 79.7656289,19 78.984375,19 C77.1718659,19 75.6250064,18.3593814 74.34375,17.078125 C73.0624936,15.7968686 72.421875,14.2500091 72.421875,12.4375 C72.421875,10.6249909 73.0624936,9.07813141 74.34375,7.796875 C75.6250064,6.51561859 77.1718659,5.875 78.984375,5.875 C80.781259,5.875 82.3281185,6.51561859 83.625,7.796875 C84.9062564,9.07813141 85.546875,10.6249909 85.546875,12.4375 L85.546875,17.78125 C85.546875,18.1171892 85.4277356,18.4042957 85.1894531,18.6425781 C84.9511707,18.8808606 84.6640642,19 84.328125,19 C83.9843733,19 83.6933606,18.8808606 83.4550781,18.6425781 C83.2167957,18.4042957 83.0976562,18.1171892 83.0976562,17.78125 L83.0976562,17.78125 Z M93.984375,17.125 C94.2421888,17.125 94.4628897,17.216796 94.6464844,17.4003906 C94.830079,17.5839853 94.921875,17.8046862 94.921875,18.0625 C94.921875,18.3203138 94.830079,18.5410147 94.6464844,18.7246094 C94.4628897,18.908204 94.2421888,19 93.984375,19 C90.8593594,19 89.296875,17.4375156 89.296875,14.3125 L89.296875,7.75 L88.359375,7.75 C88.1015612,7.75 87.8808603,7.65820404 87.6972656,7.47460938 C87.513671,7.29101471 87.421875,7.07031379 87.421875,6.8125 C87.421875,6.55468621 87.513671,6.33398529 87.6972656,6.15039062 C87.8808603,5.96679596 88.1015612,5.875 88.359375,5.875 L89.296875,5.875 L89.296875,1.1875 C89.296875,0.929686211 89.388671,0.708985293 89.5722656,0.525390625 C89.7558603,0.341795957 89.9765612,0.25 90.234375,0.25 C90.4921888,0.25 90.7128897,0.341795957 90.8964844,0.525390625 C91.080079,0.708985293 91.171875,0.929686211 91.171875,1.1875 L91.171875,5.875 L93.0585938,5.875 C93.3164075,5.875 93.5371085,5.96679596 93.7207031,6.15039062 C93.9042978,6.33398529 93.9960938,6.55468621 93.9960938,6.8125 C93.9960938,7.07031379 93.9042978,7.29101471 93.7207031,7.47460938 C93.5371085,7.65820404 93.3164075,7.75 93.0585938,7.75 L91.171875,7.75 L91.171875,14.3125 C91.171875,16.1875094 92.1093656,17.125 93.984375,17.125 L93.984375,17.125 Z M103.359375,7.75 C102.062494,7.75 100.957036,8.20702668 100.042969,9.12109375 C99.1289017,10.0351608 98.671875,11.1406185 98.671875,12.4375 C98.671875,13.7343815 99.1289017,14.8398392 100.042969,15.7539062 C100.957036,16.6679733 102.062494,17.125 103.359375,17.125 C104.656256,17.125 105.761714,16.6679733 106.675781,15.7539062 C107.589848,14.8398392 108.046875,13.7343815 108.046875,12.4375 C108.046875,11.1406185 107.589848,10.0351608 106.675781,9.12109375 C105.761714,8.20702668 104.656256,7.75 103.359375,7.75 L103.359375,7.75 Z M108.046875,17.03125 C106.734368,18.3437566 105.171884,19 103.359375,19 C101.546866,19 100.000006,18.3593814 98.71875,17.078125 C97.4374936,15.7968686 96.796875,14.2500091 96.796875,12.4375 C96.796875,10.6249909 97.4374936,9.07813141 98.71875,7.796875 C100.000006,6.51561859 101.546866,5.875 103.359375,5.875 C105.171884,5.875 106.718744,6.51561859 108,7.796875 C109.281256,9.07813141 109.921875,10.6249909 109.921875,12.4375 L109.921875,18.0625 C109.921875,18.3203138 109.830079,18.5410147 109.646484,18.7246094 C109.46289,18.908204 109.242189,19 108.984375,19 C108.726561,19 108.50586,18.908204 108.322266,18.7246094 C108.138671,18.5410147 108.046875,18.3203138 108.046875,18.0625 L108.046875,17.03125 Z M113.671875,12.4375 C113.671875,13.7343815 114.128902,14.8398392 115.042969,15.7539062 C115.957036,16.6679733 117.062494,17.125 118.359375,17.125 C119.656256,17.125 120.761714,16.6679733 121.675781,15.7539062 C122.589848,14.8398392 123.046875,13.7343815 123.046875,12.4375 C123.046875,11.1406185 122.589848,10.0351608 121.675781,9.12109375 C120.761714,8.20702668 119.656256,7.75 118.359375,7.75 C117.062494,7.75 115.957036,8.20702668 115.042969,9.12109375 C114.128902,10.0351608 113.671875,11.1406185 113.671875,12.4375 L113.671875,12.4375 Z M113.671875,23.6875 C113.671875,23.9453138 113.580079,24.1660147 113.396484,24.3496094 C113.21289,24.533204 112.992189,24.625 112.734375,24.625 C112.476561,24.625 112.25586,24.533204 112.072266,24.3496094 C111.888671,24.1660147 111.796875,23.9453138 111.796875,23.6875 L111.796875,12.4375 C111.796875,10.6249909 112.437494,9.07813141 113.71875,7.796875 C115.000006,6.51561859 116.546866,5.875 118.359375,5.875 C120.171884,5.875 121.718744,6.51561859 123,7.796875 C124.281256,9.07813141 124.921875,10.6249909 124.921875,12.4375 C124.921875,14.2500091 124.281256,15.7968686 123,17.078125 C121.718744,18.3593814 120.171884,19 118.359375,19 C116.546866,19 115.000006,18.3593814 113.71875,17.078125 L113.671875,17.03125 L113.671875,23.6875 Z M133.359375,7.75 C132.062494,7.75 130.957036,8.20702668 130.042969,9.12109375 C129.128902,10.0351608 128.671875,11.1406185 128.671875,12.4375 C128.671875,13.7343815 129.128902,14.8398392 130.042969,15.7539062 C130.957036,16.6679733 132.062494,17.125 133.359375,17.125 C134.656256,17.125 135.761714,16.6679733 136.675781,15.7539062 C137.589848,14.8398392 138.046875,13.7343815 138.046875,12.4375 C138.046875,11.1406185 137.589848,10.0351608 136.675781,9.12109375 C135.761714,8.20702668 134.656256,7.75 133.359375,7.75 L133.359375,7.75 Z M138.046875,17.03125 C136.734368,18.3437566 135.171884,19 133.359375,19 C131.546866,19 130.000006,18.3593814 128.71875,17.078125 C127.437494,15.7968686 126.796875,14.2500091 126.796875,12.4375 C126.796875,10.6249909 127.437494,9.07813141 128.71875,7.796875 C130.000006,6.51561859 131.546866,5.875 133.359375,5.875 C135.171884,5.875 136.718744,6.51561859 138,7.796875 C139.281256,9.07813141 139.921875,10.6249909 139.921875,12.4375 L139.921875,18.0625 C139.921875,18.3203138 139.830079,18.5410147 139.646484,18.7246094 C139.46289,18.908204 139.242189,19 138.984375,19 C138.726561,19 138.50586,18.908204 138.322266,18.7246094 C138.138671,18.5410147 138.046875,18.3203138 138.046875,18.0625 L138.046875,17.03125 Z M144.117188,12.4375 C143.406246,12.1718737 142.910158,11.8945327 142.628906,11.6054688 C142.074216,11.058591 141.796875,10.3984414 141.796875,9.625 C141.796875,8.85155863 142.085935,8.17578414 142.664062,7.59765625 C143.789068,6.44921301 145.257803,5.875 147.070312,5.875 C149.03126,5.875 150.710931,6.6601484 152.109375,8.23046875 C152.234376,8.37890699 152.292969,8.56249891 152.285156,8.78125 C152.285156,9.03906379 152.19336,9.25976471 152.009766,9.44335938 C151.826171,9.62695404 151.60547,9.71875 151.347656,9.71875 C151.089842,9.71875 150.882813,9.63671957 150.726562,9.47265625 C150.570312,9.30859293 150.457032,9.1914066 150.386719,9.12109375 C149.472652,8.20702668 148.367194,7.75 147.070312,7.75 C145.773431,7.75 144.738285,8.15624594 143.964844,8.96875 C143.777343,9.19531363 143.683594,9.46484219 143.683594,9.77734375 C143.707031,10.1445331 143.898436,10.3945306 144.257812,10.5273438 L150.023438,12.4375 C150.734379,12.7031263 151.230467,12.9804673 151.511719,13.2695312 C152.066409,13.816409 152.34375,14.4765586 152.34375,15.25 C152.34375,16.0234414 152.05469,16.6992159 151.476562,17.2773438 C150.351557,18.425787 148.882822,19 147.070312,19 C145.101553,19 143.421882,18.2148516 142.03125,16.6445312 C141.914062,16.4804679 141.855469,16.296876 141.855469,16.09375 C141.855469,15.8359362 141.947265,15.6152353 142.130859,15.4316406 C142.314454,15.248046 142.535155,15.15625 142.792969,15.15625 C143.050783,15.15625 143.257812,15.2382804 143.414062,15.4023438 C143.570313,15.5664071 143.683593,15.6835934 143.753906,15.7539062 C144.667973,16.6679733 145.773431,17.125 147.070312,17.125 C148.367194,17.125 149.40234,16.7187541 150.175781,15.90625 C150.363282,15.6796864 150.457031,15.4101578 150.457031,15.0976562 C150.433594,14.7304669 150.242189,14.4804694 149.882812,14.3476562 L144.117188,12.4375 Z"></path>
            </g>
            <g id="logo" transform="translate(28.000000, 0.000000)" sketch:type="MSShapeGroup">
                <circle id="fondo" fill="#A8ACB8" cx="50" cy="50" r="50"></circle>
                <circle id="circulo" stroke-opacity="0.9" stroke="#58646F" cx="50" cy="50" r="38.7096774"></circle>
                <g id="pincho" transform="translate(30.000000, 17.000000)" stroke-opacity="0.9" stroke="#58646F" stroke-linecap="round" stroke-linejoin="round">
                    <path d="M38.8398517,35.0801123 C36.0883908,39.8457825 30.081933,41.8577841 23.7475143,40.7206661 C25.633851,44.0051725 25.9257013,47.7706576 24.1655353,50.8193546 C21.6064329,55.25185 15.5663655,56.6854598 9.93629409,54.4973807 L5.21576071,62.673585 C4.65429654,63.6460695 3.26107671,63.8928329 2.10391714,63.2247465 C0.946757569,62.5566601 0.463851035,61.2267146 1.02531521,60.2542302 L5.74584888,52.078026 C1.03588132,48.2962807 -0.742609779,42.3486241 1.81649258,37.9161288 C3.57665861,34.8674318 6.98358955,33.237439 10.7712239,33.2288013 C6.61924146,28.3115928 5.3584571,22.103847 8.10991804,17.3381768 C11.5786687,11.3301245 20.2207475,9.69861423 28.1713,13.2360053 L34.6861137,1.95201688 C35.3542001,0.794857303 36.8338543,0.398385153 37.9910139,1.06647154 C39.1481735,1.73455793 39.5446456,3.21421214 38.8765592,4.37137171 L32.3617455,15.6553601 C39.4004923,20.772045 42.3086024,29.0720599 38.8398517,35.0801123 Z M9.36198166,50.65341 C13.9906199,53.3257555 19.3676457,52.6779301 21.3719049,49.2064514 C23.3761641,45.7349727 21.2486845,40.754419 16.6200462,38.0820735 C11.9914079,35.4097279 6.61438208,36.0575533 4.61012291,39.5290321 C2.60586374,43.0005108 4.73334337,47.9810644 9.36198166,50.65341 Z M35.7668493,33.3059135 C32.8718083,38.3202717 25.0841475,39.2439842 18.3726221,35.3690832 C11.6610967,31.4941822 8.56722489,24.2880139 11.4622659,19.2736558 C14.0279881,14.8296946 20.4365413,13.5986664 26.533141,16.0733799 L23.3957912,21.5074292 C22.7277048,22.6645888 23.1241769,24.144243 24.2813365,24.8123294 C25.4384961,25.4804158 26.9181503,25.0839436 27.5862367,23.9267841 L30.7445291,18.456461 C36.1228524,22.4933667 38.3747344,28.788924 35.7668493,33.3059135 Z"></path>
                </g>
            </g>
        </g>
    </g>
</svg>