<?xml version="1.0" encoding="UTF-8" standalone="no"?>
<svg width="512px" height="512px" viewBox="0 0 512 512" version="1.1" xmlns="http://www.w3.org/2000/svg" xmlns:xlink="http://www.w3.org/1999/xlink" xmlns:sketch="http://www.bohemiancoding.com/sketch/ns">
    <!-- Generator: Sketch 3.3.3 (12072) - http://www.bohemiancoding.com/sketch -->
    <title>Untitled</title>
    <desc>Created with Sketch.</desc>
    <defs></defs>
    <g id="Page-1" stroke="none" stroke-width="1" fill="none" fill-rule="evenodd" sketch:type="MSPage">
        <g id="logo" sketch:type="MSLayerGroup">
            <circle id="fondo" fill="#A8ACB8" sketch:type="MSShapeGroup" cx="256" cy="256" r="256"></circle>
            <path d="M256,454.193548 C365.459274,454.193548 454.193548,365.459274 454.193548,256 C454.193548,146.540726 365.459274,57.8064516 256,57.8064516 C146.540726,57.8064516 57.8064516,146.540726 57.8064516,256 C57.8064516,365.459274 146.540726,454.193548 256,454.193548 L256,454.193548 Z M256,459.365266 L256,459.365266 C143.684465,459.365266 52.6347344,368.315535 52.6347344,256 C52.6347344,143.684465 143.684465,52.6347344 256,52.6347344 C368.315535,52.6347344 459.365266,143.684465 459.365266,256 C459.365266,368.315535 368.315535,459.365266 256,459.365266 L256,459.365266 Z" id="Shape" fill-opacity="0.9" fill="#58646F" sketch:type="MSShapeGroup"></path>
            <g id="pincho" transform="translate(153.600000, 87.040000)" fill-opacity="0.9" fill="#58646F" sketch:type="MSShapeGroup">
                <path d="M196.620622,178.317246 C183.439662,201.147338 154.265527,211.728827 122.044168,205.944636 C119.881263,205.556364 118.250515,207.872056 119.344911,209.777629 C128.845368,226.319909 129.778421,244.542946 121.488121,258.902166 C109.233928,280.127051 79.8868516,287.527973 51.8105425,276.616356 C50.6211703,276.154116 49.2724252,276.628579 48.6344065,277.73366 L24.4652756,319.595826 C22.3592548,323.243561 16.8306924,324.222765 12.0649851,321.471283 C7.29927771,318.7198 5.38301232,313.442323 7.4890331,309.794588 L31.6581655,267.932422 C32.2961842,266.827342 32.0327086,265.422063 31.0377116,264.623156 C7.54982008,245.764167 -0.714331362,216.648393 11.5398612,195.423509 C19.8301608,181.064289 36.0783005,172.760818 55.1545634,172.717315 C57.3520362,172.712303 58.5421102,170.142187 57.1244044,168.463193 C36.0044684,143.450773 30.5812399,112.894487 43.7621996,90.0643946 C60.6284288,60.8512286 103.21098,52.3451184 143.185894,70.1309138 C144.39487,70.6688161 145.814856,70.207235 146.476475,69.0612762 L179.832322,11.2872557 C182.538859,6.59939577 188.533202,4.99321634 193.221062,7.69975353 C197.908922,10.4062907 199.515101,16.400634 196.808564,21.0884939 L163.452718,78.8625144 C162.791098,80.0084732 163.10135,81.4690077 164.171675,82.2470605 C199.562083,107.973453 213.486851,149.10408 196.620622,178.317246 L196.620622,178.317246 Z M201.09946,180.903104 C219.436491,149.142436 204.565471,105.216797 167.212599,78.0638268 L167.931556,81.448373 L201.287403,23.6743525 C205.42207,16.5128984 202.968375,7.35558253 195.806921,3.22091508 C188.645466,-0.913752374 179.488151,1.53994301 175.353483,8.70139711 L141.997637,66.4754176 L145.288219,65.4057801 C103.09662,46.6337286 57.6203917,55.7178674 39.2833611,87.478536 C24.9120801,112.370325 30.745742,145.239131 53.1729283,171.799732 L55.1427694,167.545611 C34.3156868,167.593107 16.3289964,176.785049 7.06102277,192.83765 C-6.57995997,216.464525 2.45865184,248.308833 27.799781,268.65583 L27.1793271,265.346564 L3.01019465,307.208729 C-0.633177723,313.519235 2.3955198,321.860399 9.47912647,325.950121 C16.5627331,330.039843 25.3007417,328.492191 28.9441141,322.181684 L53.113245,280.319519 L49.9371091,281.436823 C80.2286904,293.209387 112.325977,285.114901 125.96696,261.488025 C135.234933,245.435424 134.202044,225.262522 123.829635,207.201991 L121.130378,211.034985 C155.346127,217.177197 186.728179,205.794893 201.09946,180.903104 L201.09946,180.903104 Z M46.6404168,261.584878 C71.4587545,275.913752 100.593685,272.403569 111.663572,253.229961 C122.73346,234.056352 111.205903,207.069671 86.3875657,192.740797 C61.569228,178.411923 32.4342979,181.922107 21.3644101,201.095715 C10.2945223,220.269323 21.8220791,247.256004 46.6404168,261.584878 L46.6404168,261.584878 Z M49.2262754,257.10604 C26.6473569,244.070095 16.3895224,220.055907 25.8432485,203.681573 C35.2969747,187.307239 61.2227887,184.183691 83.8017071,197.219635 C106.380626,210.25558 116.63846,234.269768 107.184734,250.644102 C97.7310078,267.018436 71.8051938,270.141985 49.2262754,257.10604 L49.2262754,257.10604 Z M180.886849,169.233348 C166.873686,193.504859 128.605195,198.043973 95.3607546,178.850287 C62.1163143,159.6566 46.9130574,124.245558 60.9262207,99.9740468 C73.1842713,78.7424804 104.370624,72.3085936 134.877109,84.6916946 L133.610263,81.0027757 L117.547032,108.825108 C113.412364,115.986562 115.866059,125.143878 123.027514,129.278546 C130.188968,133.413213 139.346284,130.959518 143.480951,123.798064 L159.651408,95.7900098 L155.859696,96.5651833 C182.742181,116.742858 193.364734,147.621018 180.886849,169.233348 L180.886849,169.233348 Z M185.365688,171.819207 C199.316261,147.656104 187.750218,114.035359 158.964283,92.4289776 C157.723703,91.4978135 155.948151,91.8608055 155.17257,93.2041512 L139.002113,121.212205 C136.295575,125.900065 130.301232,127.506244 125.613372,124.799707 C120.925512,122.09317 119.319333,116.098827 122.02587,111.410967 L138.089101,83.5886343 C138.873885,82.2293488 138.276576,80.4900488 136.822255,79.8997153 C104.137812,66.632544 70.1566679,73.643009 56.4473823,97.3881882 C40.8153255,124.463705 57.2933164,162.843826 92.774896,183.329125 C128.256476,203.814425 169.733631,198.894723 185.365688,171.819207 L185.365688,171.819207 Z" id="Shape"></path>
            </g>
        </g>
    </g>
</svg>