<?xml version="1.0" encoding="UTF-8" standalone="no"?>
<svg width="513px" height="83px" viewBox="0 0 513 83" version="1.1" xmlns="http://www.w3.org/2000/svg" xmlns:xlink="http://www.w3.org/1999/xlink" xmlns:sketch="http://www.bohemiancoding.com/sketch/ns">
    <!-- Generator: Sketch 3.3.3 (12072) - http://www.bohemiancoding.com/sketch -->
    <title>Untitled</title>
    <desc>Created with Sketch.</desc>
    <defs></defs>
    <g id="Page-1" stroke="none" stroke-width="1" fill="none" fill-rule="evenodd" sketch:type="MSPage">
        <g id="type" sketch:type="MSLayerGroup" fill-opacity="0.9" fill="#58646F">
            <path d="M22.5006966,55.6589988 C24.4174241,55.6589988 26.2159702,55.2914127 27.8963888,54.5562296 C29.5768074,53.8210464 31.0405876,52.8233128 32.2877733,51.5629989 C33.534959,50.3026849 34.5195645,48.8389047 35.2416194,47.1716143 C35.9636743,45.504324 36.3246963,43.72547 36.3246963,41.8349991 C36.3246963,39.9445281 35.9636743,38.1656742 35.2416194,36.4983838 C34.5195645,34.8310935 33.534959,33.3673133 32.2877733,32.1069993 C31.0405876,30.8466853 29.5768074,29.8489517 27.8963888,29.1137686 C26.2159702,28.3785855 24.4174241,28.0109994 22.5006966,28.0109994 C20.5577126,28.0109994 18.7460384,28.3785855 17.0656198,29.1137686 C15.3852012,29.8489517 13.927985,30.8401213 12.6939276,32.087307 C11.4598702,33.3344927 10.4818287,34.7982729 9.75977383,36.4786915 C9.03771895,38.1591101 8.67669693,39.9445281 8.67669693,41.8349991 C8.67669693,43.72547 9.03771895,45.510888 9.75977383,47.1913067 C10.4818287,48.8717253 11.4598702,50.3355055 12.6939276,51.5826912 C13.927985,52.8298769 15.3852012,53.8210464 17.0656198,54.5562296 C18.7460384,55.2914127 20.5577126,55.6589988 22.5006966,55.6589988 L22.5006966,55.6589988 Z M8.67669693,24.6633072 C12.5889215,21.4074961 17.1968754,19.779615 22.5006966,19.779615 C28.539701,19.779615 33.7384182,21.932619 38.097004,26.2386917 C40.2500403,28.3654716 41.8647934,30.7350888 42.9413116,33.3476147 C44.0178297,35.9601405 44.5560807,38.7892403 44.5560807,41.8349991 C44.5560807,47.9790297 42.4030767,53.1777468 38.097004,57.4313064 C33.7384182,61.7373791 28.539701,63.8903832 22.5006966,63.8903832 C16.4091791,63.8903832 11.210462,61.7373791 6.90438928,57.4313064 C2.59831656,53.1252337 0.4453125,47.9265166 0.4453125,41.8349991 L0.4453125,4.97099991 C0.4453125,3.78945557 0.83259067,2.81141409 1.60715863,2.03684613 C2.38172659,1.26227817 3.35976807,0.875 4.54131241,0.875 C5.69660021,0.875 6.67464169,1.26227817 7.47546619,2.03684613 C8.27629069,2.81141409 8.67669693,3.78945557 8.67669693,4.97099991 L8.67669693,24.6633072 Z M86.1856183,37.7389992 C85.7392571,36.2948894 85.0762894,34.975518 84.1966952,33.7808454 C83.3171011,32.5861728 82.2931114,31.5621831 81.1246953,30.7088455 C79.9562792,29.8555079 78.669728,29.1925402 77.2650031,28.7199225 C75.8602781,28.2473047 74.409626,28.0109994 72.9130032,28.0109994 C71.4163804,28.0109994 69.9591642,28.2473047 68.541311,28.7199225 C67.1234578,29.1925402 65.8237785,29.8555079 64.6422341,30.7088455 C63.4606898,31.5621831 62.4367001,32.5861728 61.5702342,33.7808454 C60.7037684,34.975518 60.0604928,36.2948894 59.6403881,37.7389992 L86.1856183,37.7389992 Z M84.4133106,51.4842296 C85.594855,51.4842296 86.5728964,51.8715078 87.3474644,52.6460758 C88.1220324,53.4206437 88.5093105,54.3986852 88.5093105,55.5802295 C88.5093105,56.7355173 88.1154683,57.7201229 87.3277721,58.5340756 C83.2580082,62.1049652 78.4531333,63.8903832 72.9130032,63.8903832 C66.8214857,63.8903832 61.6227686,61.7373791 57.3166958,57.4313064 C53.0106231,53.1252337 50.8576191,47.9265166 50.8576191,41.8349991 C50.8576191,35.7434816 53.0106231,30.5447645 57.3166958,26.2386917 C61.6227686,21.932619 66.8214857,19.779615 72.9130032,19.779615 C78.9520076,19.779615 84.1507247,21.932619 88.5093105,26.2386917 C90.6623469,28.3654716 92.2770999,30.7350888 93.3536181,33.3476147 C94.4301363,35.9601405 94.9683873,38.7892403 94.9683873,41.8349991 C94.9683873,43.0165434 94.5679811,43.9945849 93.7671566,44.7691529 C92.9663321,45.5437208 91.9882906,45.930999 90.8330028,45.930999 L59.6403881,45.930999 C60.0867493,47.3751087 60.743153,48.6944801 61.6096188,49.8891528 C62.4760847,51.0838254 63.4935104,52.1078151 64.6619264,52.9611527 C65.8303425,53.8144903 67.1168937,54.477458 68.5216187,54.9500757 C69.9263436,55.4226935 71.3901238,55.6589988 72.9130032,55.6589988 C74.6459349,55.6589988 76.2344318,55.3964373 77.6785415,54.8713065 C79.1226513,54.3461757 80.4617148,53.5584913 81.6957722,52.5082296 C82.4834685,51.8518161 83.3893055,51.5104862 84.4133106,51.4842296 L84.4133106,51.4842296 Z M109.304387,42.8983837 C106.836272,41.9531482 105.103366,40.9816708 104.105618,39.9839222 L104.145002,39.9839222 C102.149505,37.9621685 101.151772,35.5859872 101.151772,32.855307 C101.151772,30.8598099 101.683459,29.0546998 102.746849,27.4399225 C103.810239,25.8251452 105.19525,24.4532615 106.901926,23.3242303 C108.608601,22.195199 110.531863,21.3221821 112.671772,20.7051534 C114.81168,20.0881247 116.95812,19.779615 119.111156,19.779615 C125.675291,19.779615 131.307235,22.4183577 136.007156,27.6959225 C136.558543,28.3785925 136.834233,29.2056612 136.834233,30.1771532 C136.834233,31.3586975 136.446954,32.336739 135.672386,33.111307 C134.897818,33.8858749 133.919777,34.2731531 132.738233,34.2731531 C131.898023,34.2731531 131.182543,34.0368478 130.591771,33.56423 C130.000999,33.0916123 129.429928,32.5796174 128.87854,32.0282301 C126.200373,29.3500629 122.944611,28.0109994 119.111156,28.0109994 C115.330214,28.0109994 112.310757,29.1662699 110.052695,31.4768455 C109.63259,31.8969501 109.422541,32.4745854 109.422541,33.2097685 C109.422541,33.9449517 109.763871,34.4438184 110.446541,34.7063839 L128.87854,40.7716145 C131.451681,41.769363 133.184587,42.7408405 134.07731,43.686076 L134.037925,43.686076 C136.033422,45.7078296 137.031156,48.0840109 137.031156,50.8146912 C137.031156,52.8364448 136.499469,54.648119 135.436079,56.249768 C134.372689,57.851417 132.987677,59.2233007 131.281002,60.3654602 C129.574327,61.5076197 127.657628,62.3806366 125.530848,62.9845371 C123.404068,63.5884375 121.264192,63.8903832 119.111156,63.8903832 C112.494508,63.8903832 106.862564,61.2778966 102.215156,56.0528449 C101.637512,55.2914052 101.348695,54.4380805 101.348695,53.492845 C101.348695,52.3113006 101.735973,51.3332592 102.510541,50.5586912 C103.285109,49.7841232 104.26315,49.3968451 105.444695,49.3968451 C106.311161,49.3968451 107.046333,49.6528425 107.650233,50.1648451 C108.254134,50.6768476 108.805513,51.1691504 109.304387,51.6417681 C111.982554,54.3199353 115.251444,55.6589988 119.111156,55.6589988 C122.865841,55.6589988 125.885298,54.4774722 128.169617,52.1143835 C128.563465,51.6680223 128.760387,51.1297713 128.760387,50.4996143 C128.760387,49.7644311 128.405929,49.2524363 127.697002,48.9636143 L109.304387,42.8983837 Z M165.073001,28.0109994 C163.130017,28.0109994 161.318343,28.3785855 159.637924,29.1137686 C157.957506,29.8489517 156.50029,30.8401213 155.266232,32.087307 C154.032175,33.3344927 153.054133,34.7982729 152.332078,36.4786915 C151.610023,38.1591101 151.249001,39.9445281 151.249001,41.8349991 C151.249001,43.72547 151.610023,45.510888 152.332078,47.1913067 C153.054133,48.8717253 154.032175,50.3355055 155.266232,51.5826912 C156.50029,52.8298769 157.957506,53.8210464 159.637924,54.5562296 C161.318343,55.2914127 163.130017,55.6589988 165.073001,55.6589988 C166.989729,55.6589988 168.788275,55.2914127 170.468693,54.5562296 C172.149112,53.8210464 173.612892,52.8233128 174.860078,51.5629989 C176.107264,50.3026849 177.091869,48.8389047 177.813924,47.1716143 C178.535979,45.504324 178.897001,43.72547 178.897001,41.8349991 C178.897001,39.9445281 178.535979,38.1656742 177.813924,36.4983838 C177.091869,34.8310935 176.107264,33.3673133 174.860078,32.1069993 C173.612892,30.8466853 172.149112,29.8489517 170.468693,29.1137686 C168.788275,28.3785855 166.989729,28.0109994 165.073001,28.0109994 L165.073001,28.0109994 Z M178.897001,59.7943833 L178.897001,59.006691 C176.92776,60.5820835 174.787884,61.7898662 172.477309,62.6300755 C170.166733,63.4702849 167.698655,63.8903832 165.073001,63.8903832 C158.981484,63.8903832 153.782767,61.7373791 149.476694,57.4313064 C145.170621,53.1252337 143.017617,47.9265166 143.017617,41.8349991 C143.017617,35.7434816 145.170621,30.5447645 149.476694,26.2386917 C153.782767,21.932619 158.981484,19.779615 165.073001,19.779615 C171.112006,19.779615 176.310723,21.932619 180.669308,26.2386917 C184.975381,30.5447645 187.128385,35.7434816 187.128385,41.8349991 L187.128385,59.7943833 C187.128385,60.9234146 186.727979,61.888328 185.927155,62.6891525 C185.12633,63.489977 184.161417,63.8903832 183.032385,63.8903832 C181.877098,63.8903832 180.899056,63.489977 180.098232,62.6891525 C179.297407,61.888328 178.897001,60.9234146 178.897001,59.7943833 L178.897001,59.7943833 Z M201.621923,23.8362303 C205.114043,21.1318065 209.22313,19.779615 213.949308,19.779615 C216.706245,19.779615 219.325295,20.317866 221.806538,21.3943842 C224.287781,22.4709023 226.473606,23.9346825 228.364077,25.7857687 C230.254548,27.6368548 231.751148,29.816115 232.853923,32.3236147 C233.956697,34.8311143 234.508076,37.5026773 234.508076,40.3383837 L234.508076,59.7549987 C234.508076,60.9102865 234.10767,61.888328 233.306846,62.6891525 C232.506021,63.489977 231.541108,63.8903832 230.412077,63.8903832 C229.256789,63.8903832 228.278747,63.489977 227.477923,62.6891525 C226.677098,61.888328 226.276692,60.9102865 226.276692,59.7549987 L226.276692,40.3383837 C226.276692,38.6579651 225.94849,37.0694682 225.292077,35.5728454 C224.635663,34.0762225 223.749518,32.7699792 222.633615,31.6540762 C221.517712,30.5381732 220.211469,29.6520283 218.714846,28.9956148 C217.218223,28.3392012 215.629726,28.0109994 213.949308,28.0109994 C212.242633,28.0109994 210.647572,28.3326372 209.164077,28.9759224 C207.680583,29.6192077 206.374339,30.5053527 205.245308,31.6343839 C204.116277,32.7634152 203.230132,34.0762225 202.586846,35.5728454 C201.943561,37.0694682 201.621923,38.6579651 201.621923,40.3383837 L201.621923,59.7549987 C201.621923,60.9102865 201.221517,61.888328 200.420693,62.6891525 C199.619868,63.489977 198.654955,63.8903832 197.525923,63.8903832 C196.370636,63.8903832 195.392594,63.489977 194.59177,62.6891525 C193.790945,61.888328 193.390539,60.9102865 193.390539,59.7549987 L193.390539,23.9149995 C193.390539,22.7859682 193.790945,21.8144908 194.59177,21.000538 C195.392594,20.1865852 196.370636,19.779615 197.525923,19.779615 C198.654955,19.779615 199.619868,20.1865852 200.420693,21.000538 C201.221517,21.8144908 201.621923,22.7597121 201.621923,23.8362303 L201.621923,23.8362303 Z M262.746845,28.0109994 C260.803861,28.0109994 258.992187,28.3785855 257.311768,29.1137686 C255.63135,29.8489517 254.174134,30.8401213 252.940076,32.087307 C251.706019,33.3344927 250.727977,34.7982729 250.005922,36.4786915 C249.283867,38.1591101 248.922845,39.9445281 248.922845,41.8349991 C248.922845,43.72547 249.283867,45.510888 250.005922,47.1913067 C250.727977,48.8717253 251.706019,50.3355055 252.940076,51.5826912 C254.174134,52.8298769 255.63135,53.8210464 257.311768,54.5562296 C258.992187,55.2914127 260.803861,55.6589988 262.746845,55.6589988 C264.663573,55.6589988 266.462119,55.2914127 268.142537,54.5562296 C269.822956,53.8210464 271.286736,52.8233128 272.533922,51.5629989 C273.781107,50.3026849 274.765713,48.8389047 275.487768,47.1716143 C276.209823,45.504324 276.570845,43.72547 276.570845,41.8349991 C276.570845,39.9445281 276.209823,38.1656742 275.487768,36.4983838 C274.765713,34.8310935 273.781107,33.3673133 272.533922,32.1069993 C271.286736,30.8466853 269.822956,29.8489517 268.142537,29.1137686 C266.462119,28.3785855 264.663573,28.0109994 262.746845,28.0109994 L262.746845,28.0109994 Z M276.570845,59.7943833 L276.570845,59.006691 C274.601604,60.5820835 272.461728,61.7898662 270.151153,62.6300755 C267.840577,63.4702849 265.372499,63.8903832 262.746845,63.8903832 C256.655328,63.8903832 251.45661,61.7373791 247.150538,57.4313064 C242.844465,53.1252337 240.691461,47.9265166 240.691461,41.8349991 C240.691461,35.7434816 242.844465,30.5447645 247.150538,26.2386917 C251.45661,21.932619 256.655328,19.779615 262.746845,19.779615 C268.78585,19.779615 273.984567,21.932619 278.343152,26.2386917 C282.649225,30.5447645 284.802229,35.7434816 284.802229,41.8349991 L284.802229,59.7943833 C284.802229,60.9234146 284.401823,61.888328 283.600998,62.6891525 C282.800174,63.489977 281.835261,63.8903832 280.706229,63.8903832 C279.550942,63.8903832 278.5729,63.489977 277.772076,62.6891525 C276.971251,61.888328 276.570845,60.9234146 276.570845,59.7943833 L276.570845,59.7943833 Z M313.159152,57.5888449 C314.025618,57.5888449 314.767354,57.8973546 315.384382,58.5143833 C316.001411,59.131412 316.309921,59.8731482 316.309921,60.739614 C316.309921,61.6060799 316.001411,62.3478161 315.384382,62.9648448 C314.767354,63.5818735 314.025618,63.8903832 313.159152,63.8903832 C302.656535,63.8903832 297.405306,58.6391538 297.405306,48.1365374 L297.405306,26.0811533 L294.254537,26.0811533 C293.388071,26.0811533 292.646335,25.7726436 292.029306,25.1556148 C291.412277,24.5385861 291.103768,23.79685 291.103768,22.9303841 C291.103768,22.0639183 291.412277,21.3221821 292.029306,20.7051534 C292.646335,20.0881247 293.388071,19.779615 294.254537,19.779615 L297.405306,19.779615 L297.405306,4.02576916 C297.405306,3.15930331 297.713816,2.41756715 298.330844,1.80053844 C298.947873,1.18350973 299.689609,0.875 300.556075,0.875 C301.422541,0.875 302.164277,1.18350973 302.781306,1.80053844 C303.398334,2.41756715 303.706844,3.15930331 303.706844,4.02576916 L303.706844,19.779615 L310.047767,19.779615 C310.914233,19.779615 311.655969,20.0881247 312.272998,20.7051534 C312.890027,21.3221821 313.198536,22.0639183 313.198536,22.9303841 C313.198536,23.79685 312.890027,24.5385861 312.272998,25.1556148 C311.655969,25.7726436 310.914233,26.0811533 310.047767,26.0811533 L303.706844,26.0811533 L303.706844,48.1365374 C303.706844,54.4381072 306.857582,57.5888449 313.159152,57.5888449 L313.159152,57.5888449 Z M344.666843,26.0811533 C340.308257,26.0811533 336.593013,27.6171379 333.520997,30.6891532 C330.448982,33.7611685 328.912997,37.4764133 328.912997,41.8349991 C328.912997,46.1935849 330.448982,49.9088297 333.520997,52.980845 C336.593013,56.0528603 340.308257,57.5888449 344.666843,57.5888449 C349.025429,57.5888449 352.740674,56.0528603 355.812689,52.980845 C358.884704,49.9088297 360.420689,46.1935849 360.420689,41.8349991 C360.420689,37.4764133 358.884704,33.7611685 355.812689,30.6891532 C352.740674,27.6171379 349.025429,26.0811533 344.666843,26.0811533 L344.666843,26.0811533 Z M360.420689,57.273768 C356.00959,61.6848669 350.758361,63.8903832 344.666843,63.8903832 C338.575326,63.8903832 333.376609,61.7373791 329.070536,57.4313064 C324.764463,53.1252337 322.611459,47.9265166 322.611459,41.8349991 C322.611459,35.7434816 324.764463,30.5447645 329.070536,26.2386917 C333.376609,21.932619 338.575326,19.779615 344.666843,19.779615 C350.758361,19.779615 355.957078,21.932619 360.263151,26.2386917 C364.569223,30.5447645 366.722227,35.7434816 366.722227,41.8349991 L366.722227,60.739614 C366.722227,61.6060799 366.413718,62.3478161 365.796689,62.9648448 C365.17966,63.5818735 364.437924,63.8903832 363.571458,63.8903832 C362.704992,63.8903832 361.963256,63.5818735 361.346228,62.9648448 C360.729199,62.3478161 360.420689,61.6060799 360.420689,60.739614 L360.420689,57.273768 Z M379.325304,41.8349991 C379.325304,46.1935849 380.861289,49.9088297 383.933304,52.980845 C387.005319,56.0528603 390.720564,57.5888449 395.07915,57.5888449 C399.437736,57.5888449 403.15298,56.0528603 406.224996,52.980845 C409.297011,49.9088297 410.832996,46.1935849 410.832996,41.8349991 C410.832996,37.4764133 409.297011,33.7611685 406.224996,30.6891532 C403.15298,27.6171379 399.437736,26.0811533 395.07915,26.0811533 C390.720564,26.0811533 387.005319,27.6171379 383.933304,30.6891532 C380.861289,33.7611685 379.325304,37.4764133 379.325304,41.8349991 L379.325304,41.8349991 Z M379.325304,79.644229 C379.325304,80.5106949 379.016794,81.252431 378.399766,81.8694597 C377.782737,82.4864884 377.041001,82.7949982 376.174535,82.7949982 C375.308069,82.7949982 374.566333,82.4864884 373.949304,81.8694597 C373.332275,81.252431 373.023766,80.5106949 373.023766,79.644229 L373.023766,41.8349991 C373.023766,35.7434816 375.17677,30.5447645 379.482842,26.2386917 C383.788915,21.932619 388.987632,19.779615 395.07915,19.779615 C401.170667,19.779615 406.369384,21.932619 410.675457,26.2386917 C414.98153,30.5447645 417.134534,35.7434816 417.134534,41.8349991 C417.134534,47.9265166 414.98153,53.1252337 410.675457,57.4313064 C406.369384,61.7373791 401.170667,63.8903832 395.07915,63.8903832 C388.987632,63.8903832 383.788915,61.7373791 379.482842,57.4313064 C379.430329,57.3787933 379.377817,57.3262811 379.325304,57.273768 L379.325304,79.644229 Z M445.491456,26.0811533 C441.132871,26.0811533 437.417626,27.6171379 434.34561,30.6891532 C431.273595,33.7611685 429.737611,37.4764133 429.737611,41.8349991 C429.737611,46.1935849 431.273595,49.9088297 434.34561,52.980845 C437.417626,56.0528603 441.132871,57.5888449 445.491456,57.5888449 C449.850042,57.5888449 453.565287,56.0528603 456.637302,52.980845 C459.709318,49.9088297 461.245302,46.1935849 461.245302,41.8349991 C461.245302,37.4764133 459.709318,33.7611685 456.637302,30.6891532 C453.565287,27.6171379 449.850042,26.0811533 445.491456,26.0811533 L445.491456,26.0811533 Z M461.245302,57.273768 C456.834203,61.6848669 451.582974,63.8903832 445.491456,63.8903832 C439.399939,63.8903832 434.201222,61.7373791 429.895149,57.4313064 C425.589076,53.1252337 423.436072,47.9265166 423.436072,41.8349991 C423.436072,35.7434816 425.589076,30.5447645 429.895149,26.2386917 C434.201222,21.932619 439.399939,19.779615 445.491456,19.779615 C451.582974,19.779615 456.781691,21.932619 461.087764,26.2386917 C465.393836,30.5447645 467.546841,35.7434816 467.546841,41.8349991 L467.546841,60.739614 C467.546841,61.6060799 467.238331,62.3478161 466.621302,62.9648448 C466.004273,63.5818735 465.262537,63.8903832 464.396071,63.8903832 C463.529606,63.8903832 462.787869,63.5818735 462.170841,62.9648448 C461.553812,62.3478161 461.245302,61.6060799 461.245302,60.739614 L461.245302,57.273768 Z M481.646533,41.8349991 C479.257187,40.9422767 477.589922,40.0101835 476.644686,39.0386915 C474.780472,37.2007336 473.848379,34.9820892 473.848379,32.3826916 C473.848379,29.783294 474.819856,27.5121373 476.76284,25.5691533 C480.543782,21.7094418 485.479938,19.779615 491.571455,19.779615 C498.161847,19.779615 503.806919,22.4183577 508.50684,27.6959225 C508.926944,28.1947968 509.123865,28.8118162 509.097609,29.5469994 C509.097609,30.4134652 508.789099,31.1552014 508.17207,31.7722301 C507.555042,32.3892588 506.813306,32.6977685 505.94684,32.6977685 C505.080374,32.6977685 504.384586,32.422079 503.859455,31.8706916 C503.334324,31.3193043 502.95361,30.925462 502.717301,30.6891532 C499.645286,27.6171379 495.930041,26.0811533 491.571455,26.0811533 C487.21287,26.0811533 483.73393,27.4464729 481.134533,30.1771532 C480.504376,30.9385929 480.189302,31.84443 480.189302,32.8946916 C480.268071,34.128749 480.911347,34.9689457 482.119148,35.4153069 L501.496378,41.8349991 C503.885723,42.7277215 505.552989,43.6598147 506.498224,44.6313067 C508.362439,46.4692646 509.294532,48.687909 509.294532,51.2873066 C509.294532,53.8867041 508.323054,56.1578608 506.38007,58.1008449 C502.599129,61.9605564 497.662973,63.8903832 491.571455,63.8903832 C484.954807,63.8903832 479.309735,61.2516404 474.636071,55.9740757 C474.242223,55.4226883 474.045302,54.8056689 474.045302,54.1229988 C474.045302,53.256533 474.353812,52.5147968 474.97084,51.8977681 C475.587869,51.2807394 476.329605,50.9722296 477.196071,50.9722296 C478.062537,50.9722296 478.758325,51.2479192 479.283456,51.7993066 C479.808586,52.3506939 480.189301,52.7445361 480.425609,52.980845 C483.497625,56.0528603 487.21287,57.5888449 491.571455,57.5888449 C495.930041,57.5888449 499.408981,56.2235252 502.008378,53.492845 C502.638535,52.7314053 502.953609,51.8255682 502.953609,50.7753066 C502.874839,49.5412492 502.231564,48.7010524 501.023763,48.2546912 L481.646533,41.8349991 Z" sketch:type="MSShapeGroup"></path>
        </g>
    </g>
</svg>