<?xml version="1.0" encoding="UTF-8" standalone="no"?>
<svg width="512px" height="512px" viewBox="0 0 512 512" version="1.1" xmlns="http://www.w3.org/2000/svg" xmlns:xlink="http://www.w3.org/1999/xlink" xmlns:sketch="http://www.bohemiancoding.com/sketch/ns">
    <!-- Generator: Sketch 3.5.1 (25234) - http://www.bohemiancoding.com/sketch -->
    <title>Slice 1</title>
    <desc>Created with Sketch.</desc>
    <defs></defs>
    <g id="Page-1" stroke="none" stroke-width="1" fill="none" fill-rule="evenodd" sketch:type="MSPage">
        <path d="M256,512 C114.615104,512 0,397.384896 0,256 C0,114.615104 114.615104,0 256,0 C397.384896,0 512,114.615104 512,256 C512,397.384896 397.384896,512 256,512 L256,512 L256,512 L256,512 Z M133.944435,420.471034 C168.030745,445.808319 210.264625,460.8 256,460.8 C301.471284,460.8 343.481394,445.980953 377.464275,420.908915 L345.418066,388.862707 C333.42116,376.865801 333.42116,357.414973 345.418066,345.418066 C357.414973,333.42116 376.865801,333.42116 388.862707,345.418066 L420.908915,377.464275 C445.980953,343.481394 460.8,301.471284 460.8,256 C460.8,210.264625 445.808319,168.030745 420.471034,133.944435 L383.742707,170.672762 C371.745801,182.669668 352.294973,182.669668 340.298066,170.672762 C328.30116,158.675856 328.30116,139.225027 340.298066,127.228121 L376.8711,90.6550878 C342.993086,65.8473378 301.207077,51.2 256,51.2 C210.528716,51.2 168.518606,66.0190468 134.535725,91.0910845 L165.552762,122.108121 C177.549668,134.105027 177.549668,153.555856 165.552762,165.552762 C153.555856,177.549668 134.105027,177.549668 122.108121,165.552762 L91.0910845,134.535725 C66.0190468,168.518606 51.2,210.528716 51.2,256 C51.2,301.207077 65.8473378,342.993086 90.6550878,376.8711 L122.108121,345.418066 C134.105027,333.42116 153.555856,333.42116 165.552762,345.418066 C177.549668,357.414973 177.549668,376.865801 165.552762,388.862707 L133.944435,420.471034 L133.944435,420.471034 L133.944435,420.471034 L133.944435,420.471034 L133.944435,420.471034 Z" id="Shape" fill="#FFFFFF" sketch:type="MSShapeGroup"></path>
    </g>
</svg>