<?xml version="1.0" encoding="UTF-8" standalone="no"?>
<svg width="512px" height="512px" viewBox="0 0 512 512" version="1.1" xmlns="http://www.w3.org/2000/svg" xmlns:xlink="http://www.w3.org/1999/xlink" xmlns:sketch="http://www.bohemiancoding.com/sketch/ns">
    <!-- Generator: Sketch 3.4.4 (17249) - http://www.bohemiancoding.com/sketch -->
    <title>logo</title>
    <desc>Created with Sketch.</desc>
    <defs></defs>
    <g id="Page-1" stroke="none" stroke-width="1" fill="none" fill-rule="evenodd" sketch:type="MSPage">
        <circle id="fondo" fill="#A8ACB8" sketch:type="MSShapeGroup" cx="256" cy="256" r="256"></circle>
        <path d="M256,454.193548 C365.459274,454.193548 454.193548,365.459274 454.193548,256 C454.193548,146.540726 365.459274,57.8064516 256,57.8064516 C146.540726,57.8064516 57.8064516,146.540726 57.8064516,256 C57.8064516,365.459274 146.540726,454.193548 256,454.193548 L256,454.193548 L256,454.193548 Z M256,459.365266 L256,459.365266 C143.684465,459.365266 52.6347344,368.315535 52.6347344,256 C52.6347344,143.684465 143.684465,52.6347344 256,52.6347344 C368.315535,52.6347344 459.365266,143.684465 459.365266,256 C459.365266,368.315535 368.315535,459.365266 256,459.365266 L256,459.365266 L256,459.365266 Z" id="Shape" fill-opacity="0.9" fill="#58646F" sketch:type="MSShapeGroup"></path>
        <g id="pincho" sketch:type="MSLayerGroup" transform="translate(153.600000, 88.040000)" fill-opacity="0.9" fill="#58646F">
            <path d="M122.044168,204.944636 C119.881263,204.556364 118.250515,206.872056 119.344911,208.777629 C128.845368,225.319909 129.778421,243.542946 121.488121,257.902166 C109.233928,279.127051 79.8868516,286.527973 51.8105425,275.616356 C50.6211703,275.154116 49.2724252,275.628579 48.6344065,276.73366 L24.4652756,318.595826 C22.3592548,322.243561 16.8306924,323.222765 12.0649851,320.471283 C7.29927771,317.7198 5.38301232,312.442323 7.4890331,308.794588 L31.6581655,266.932422 C32.2961842,265.827342 32.0327086,264.422063 31.0377116,263.623156 C7.54982008,244.764167 -0.714331362,215.648393 11.5398612,194.423509 C19.8301608,180.064289 36.0783005,171.760818 55.1545634,171.717315 C57.3520362,171.712303 58.5421102,169.142187 57.1244044,167.463193 C36.0044684,142.450773 30.5812399,111.894487 43.7621996,89.0643946 C60.6284288,59.8512286 103.21098,51.3451184 143.185894,69.1309138 C144.39487,69.6688161 145.814856,69.207235 146.476475,68.0612762 L179.832322,10.2872557 C182.538859,5.59939577 188.533202,3.99321634 193.221062,6.69975353 C197.908922,9.4062907 199.515101,15.400634 196.808564,20.0884939 L163.452718,77.8625144 C162.791098,79.0084732 163.10135,80.4690077 164.171675,81.2470605 C199.562083,106.973453 213.486851,148.10408 196.620622,177.317246 C183.439662,200.147338 154.265527,210.728827 122.044168,204.944636 Z M169.08769,78.4415071 L201.287403,22.6743525 C205.42207,15.5128984 202.968375,6.35558253 195.806921,2.22091508 C188.645466,-1.91375237 179.488151,0.53994301 175.353483,7.70139711 L143.144453,63.4824007 C100.952854,44.7103492 57.6203917,54.7178674 39.2833611,86.478536 C24.9120801,111.370325 28.2164667,140.615212 50.643653,167.175813 C29.8165704,167.223309 16.3289964,175.785049 7.06102277,191.83765 C-6.57995997,215.464525 0.730990685,245.903417 26.0721198,266.250414 L3.01019465,306.208729 C-0.633177723,312.519235 2.3955198,320.860399 9.47912647,324.950121 C16.5627331,329.039843 25.3007417,327.492191 28.9441141,321.181684 L52.0402579,281.179491 C82.3318392,292.952055 112.325977,284.114901 125.96696,260.488025 C135.234933,244.435424 134.105078,225.610391 126.246314,210.779451 C153.169531,215.002969 186.728179,204.794893 201.09946,179.903104 C219.436491,148.142436 206.440562,105.594477 169.08769,78.4415071 Z M111.663572,252.229961 C122.73346,233.056352 111.205903,206.069671 86.3875657,191.740797 C61.569228,177.411923 32.4342979,180.922107 21.3644101,200.095715 C10.2945223,219.269323 21.8220791,246.256004 46.6404168,260.584878 C71.4587545,274.913752 100.593685,271.403569 111.663572,252.229961 Z M49.2262754,256.10604 C26.6473569,243.070095 16.3895224,219.055907 25.8432485,202.681573 C35.2969747,186.307239 61.2227887,183.183691 83.8017071,196.219635 C106.380626,209.25558 116.63846,233.269768 107.184734,249.644102 C97.7310078,266.018436 71.8051938,269.141985 49.2262754,256.10604 L49.2262754,256.10604 L49.2262754,256.10604 Z M95.3607546,177.850287 C62.1163143,158.6566 46.9130574,123.245558 60.9262207,98.9740468 C73.1842713,77.7424804 101.698568,70.066767 132.205053,82.449868 L117.547032,107.825108 C113.412364,114.986562 115.866059,124.143878 123.027514,128.278546 C130.188968,132.413213 139.346284,129.959518 143.480951,122.798064 L158.174352,97.3517245 C185.056837,117.529399 193.364734,146.621018 180.886849,168.233348 C166.873686,192.504859 128.605195,197.043973 95.3607546,177.850287 Z M185.365688,170.819207 C199.316261,146.656104 187.750218,113.035359 158.964283,91.4289776 C157.723703,90.4978135 155.948151,90.8608055 155.17257,92.2041512 L139.002113,120.212205 C136.295575,124.900065 130.301232,126.506244 125.613372,123.799707 C120.925512,121.09317 119.319333,115.098827 122.02587,110.410967 L138.089101,82.5886343 C138.873885,81.2293488 138.276576,79.4900488 136.822255,78.8997153 C104.137812,65.632544 70.1566679,72.643009 56.4473823,96.3881882 C40.8153255,123.463705 57.2933164,161.843826 92.774896,182.329125 C128.256476,202.814425 169.733631,197.894723 185.365688,170.819207 L185.365688,170.819207 L185.365688,170.819207 Z" id="Shape" sketch:type="MSShapeGroup"></path>
        </g>
    </g>
</svg>